<?xml version="1.0" encoding="utf-8" standalone="no"?>
<!DOCTYPE svg PUBLIC "-//W3C//DTD SVG 1.1//EN"
  "http://www.w3.org/Graphics/SVG/1.1/DTD/svg11.dtd">
<!-- Created with matplotlib (https://matplotlib.org/) -->
<svg height="504pt" version="1.1" viewBox="0 0 648 504" width="648pt" xmlns="http://www.w3.org/2000/svg" xmlns:xlink="http://www.w3.org/1999/xlink">
 <metadata>
  <rdf:RDF xmlns:cc="http://creativecommons.org/ns#" xmlns:dc="http://purl.org/dc/elements/1.1/" xmlns:rdf="http://www.w3.org/1999/02/22-rdf-syntax-ns#">
   <cc:Work>
    <dc:type rdf:resource="http://purl.org/dc/dcmitype/StillImage"/>
    <dc:date>2021-01-31T16:06:49.340762</dc:date>
    <dc:format>image/svg+xml</dc:format>
    <dc:creator>
     <cc:Agent>
      <dc:title>Matplotlib v3.3.4, https://matplotlib.org/</dc:title>
     </cc:Agent>
    </dc:creator>
   </cc:Work>
  </rdf:RDF>
 </metadata>
 <defs>
  <style type="text/css">*{stroke-linecap:butt;stroke-linejoin:round;}</style>
 </defs>
 <g id="figure_1">
  <g id="patch_1">
   <path d="M 0 504 
L 648 504 
L 648 0 
L 0 0 
z
" style="fill:#ffffff;"/>
  </g>
  <g id="axes_1">
   <g id="patch_2">
    <path d="M 81 448.56 
L 583.2 448.56 
L 583.2 60.48 
L 81 60.48 
z
" style="fill:#ffffff;"/>
   </g>
   <g id="matplotlib.axis_1">
    <g id="xtick_1">
     <g id="line2d_1">
      <defs>
       <path d="M 0 0 
L 0 3.5 
" id="ma3aca02b17" style="stroke:#000000;stroke-width:0.8;"/>
      </defs>
      <g>
       <use style="stroke:#000000;stroke-width:0.8;" x="103.827273" xlink:href="#ma3aca02b17" y="448.56"/>
      </g>
     </g>
     <g id="text_1">
      <!-- −2.0 -->
      <g transform="translate(81.972741 469.237188)scale(0.18 -0.18)">
       <defs>
        <path d="M 10.59375 35.5 
L 73.1875 35.5 
L 73.1875 27.203125 
L 10.59375 27.203125 
z
" id="DejaVuSans-8722"/>
        <path d="M 19.1875 8.296875 
L 53.609375 8.296875 
L 53.609375 0 
L 7.328125 0 
L 7.328125 8.296875 
Q 12.9375 14.109375 22.625 23.890625 
Q 32.328125 33.6875 34.8125 36.53125 
Q 39.546875 41.84375 41.421875 45.53125 
Q 43.3125 49.21875 43.3125 52.78125 
Q 43.3125 58.59375 39.234375 62.25 
Q 35.15625 65.921875 28.609375 65.921875 
Q 23.96875 65.921875 18.8125 64.3125 
Q 13.671875 62.703125 7.8125 59.421875 
L 7.8125 69.390625 
Q 13.765625 71.78125 18.9375 73 
Q 24.125 74.21875 28.421875 74.21875 
Q 39.75 74.21875 46.484375 68.546875 
Q 53.21875 62.890625 53.21875 53.421875 
Q 53.21875 48.921875 51.53125 44.890625 
Q 49.859375 40.875 45.40625 35.40625 
Q 44.1875 33.984375 37.640625 27.21875 
Q 31.109375 20.453125 19.1875 8.296875 
z
" id="DejaVuSans-50"/>
        <path d="M 10.6875 12.40625 
L 21 12.40625 
L 21 0 
L 10.6875 0 
z
" id="DejaVuSans-46"/>
        <path d="M 31.78125 66.40625 
Q 24.171875 66.40625 20.328125 58.90625 
Q 16.5 51.421875 16.5 36.375 
Q 16.5 21.390625 20.328125 13.890625 
Q 24.171875 6.390625 31.78125 6.390625 
Q 39.453125 6.390625 43.28125 13.890625 
Q 47.125 21.390625 47.125 36.375 
Q 47.125 51.421875 43.28125 58.90625 
Q 39.453125 66.40625 31.78125 66.40625 
z
M 31.78125 74.21875 
Q 44.046875 74.21875 50.515625 64.515625 
Q 56.984375 54.828125 56.984375 36.375 
Q 56.984375 17.96875 50.515625 8.265625 
Q 44.046875 -1.421875 31.78125 -1.421875 
Q 19.53125 -1.421875 13.0625 8.265625 
Q 6.59375 17.96875 6.59375 36.375 
Q 6.59375 54.828125 13.0625 64.515625 
Q 19.53125 74.21875 31.78125 74.21875 
z
" id="DejaVuSans-48"/>
       </defs>
       <use xlink:href="#DejaVuSans-8722"/>
       <use x="83.789062" xlink:href="#DejaVuSans-50"/>
       <use x="147.412109" xlink:href="#DejaVuSans-46"/>
       <use x="179.199219" xlink:href="#DejaVuSans-48"/>
      </g>
     </g>
    </g>
    <g id="xtick_2">
     <g id="line2d_2">
      <g>
       <use style="stroke:#000000;stroke-width:0.8;" x="160.895455" xlink:href="#ma3aca02b17" y="448.56"/>
      </g>
     </g>
     <g id="text_2">
      <!-- −1.5 -->
      <g transform="translate(139.040923 469.237188)scale(0.18 -0.18)">
       <defs>
        <path d="M 12.40625 8.296875 
L 28.515625 8.296875 
L 28.515625 63.921875 
L 10.984375 60.40625 
L 10.984375 69.390625 
L 28.421875 72.90625 
L 38.28125 72.90625 
L 38.28125 8.296875 
L 54.390625 8.296875 
L 54.390625 0 
L 12.40625 0 
z
" id="DejaVuSans-49"/>
        <path d="M 10.796875 72.90625 
L 49.515625 72.90625 
L 49.515625 64.59375 
L 19.828125 64.59375 
L 19.828125 46.734375 
Q 21.96875 47.46875 24.109375 47.828125 
Q 26.265625 48.1875 28.421875 48.1875 
Q 40.625 48.1875 47.75 41.5 
Q 54.890625 34.8125 54.890625 23.390625 
Q 54.890625 11.625 47.5625 5.09375 
Q 40.234375 -1.421875 26.90625 -1.421875 
Q 22.3125 -1.421875 17.546875 -0.640625 
Q 12.796875 0.140625 7.71875 1.703125 
L 7.71875 11.625 
Q 12.109375 9.234375 16.796875 8.0625 
Q 21.484375 6.890625 26.703125 6.890625 
Q 35.15625 6.890625 40.078125 11.328125 
Q 45.015625 15.765625 45.015625 23.390625 
Q 45.015625 31 40.078125 35.4375 
Q 35.15625 39.890625 26.703125 39.890625 
Q 22.75 39.890625 18.8125 39.015625 
Q 14.890625 38.140625 10.796875 36.28125 
z
" id="DejaVuSans-53"/>
       </defs>
       <use xlink:href="#DejaVuSans-8722"/>
       <use x="83.789062" xlink:href="#DejaVuSans-49"/>
       <use x="147.412109" xlink:href="#DejaVuSans-46"/>
       <use x="179.199219" xlink:href="#DejaVuSans-53"/>
      </g>
     </g>
    </g>
    <g id="xtick_3">
     <g id="line2d_3">
      <g>
       <use style="stroke:#000000;stroke-width:0.8;" x="217.963636" xlink:href="#ma3aca02b17" y="448.56"/>
      </g>
     </g>
     <g id="text_3">
      <!-- −1.0 -->
      <g transform="translate(196.109105 469.237188)scale(0.18 -0.18)">
       <use xlink:href="#DejaVuSans-8722"/>
       <use x="83.789062" xlink:href="#DejaVuSans-49"/>
       <use x="147.412109" xlink:href="#DejaVuSans-46"/>
       <use x="179.199219" xlink:href="#DejaVuSans-48"/>
      </g>
     </g>
    </g>
    <g id="xtick_4">
     <g id="line2d_4">
      <g>
       <use style="stroke:#000000;stroke-width:0.8;" x="275.031818" xlink:href="#ma3aca02b17" y="448.56"/>
      </g>
     </g>
     <g id="text_4">
      <!-- −0.5 -->
      <g transform="translate(253.177287 469.237188)scale(0.18 -0.18)">
       <use xlink:href="#DejaVuSans-8722"/>
       <use x="83.789062" xlink:href="#DejaVuSans-48"/>
       <use x="147.412109" xlink:href="#DejaVuSans-46"/>
       <use x="179.199219" xlink:href="#DejaVuSans-53"/>
      </g>
     </g>
    </g>
    <g id="xtick_5">
     <g id="line2d_5">
      <g>
       <use style="stroke:#000000;stroke-width:0.8;" x="332.1" xlink:href="#ma3aca02b17" y="448.56"/>
      </g>
     </g>
     <g id="text_5">
      <!-- 0.0 -->
      <g transform="translate(317.787188 469.237188)scale(0.18 -0.18)">
       <use xlink:href="#DejaVuSans-48"/>
       <use x="63.623047" xlink:href="#DejaVuSans-46"/>
       <use x="95.410156" xlink:href="#DejaVuSans-48"/>
      </g>
     </g>
    </g>
    <g id="xtick_6">
     <g id="line2d_6">
      <g>
       <use style="stroke:#000000;stroke-width:0.8;" x="389.168182" xlink:href="#ma3aca02b17" y="448.56"/>
      </g>
     </g>
     <g id="text_6">
      <!-- 0.5 -->
      <g transform="translate(374.855369 469.237188)scale(0.18 -0.18)">
       <use xlink:href="#DejaVuSans-48"/>
       <use x="63.623047" xlink:href="#DejaVuSans-46"/>
       <use x="95.410156" xlink:href="#DejaVuSans-53"/>
      </g>
     </g>
    </g>
    <g id="xtick_7">
     <g id="line2d_7">
      <g>
       <use style="stroke:#000000;stroke-width:0.8;" x="446.236364" xlink:href="#ma3aca02b17" y="448.56"/>
      </g>
     </g>
     <g id="text_7">
      <!-- 1.0 -->
      <g transform="translate(431.923551 469.237188)scale(0.18 -0.18)">
       <use xlink:href="#DejaVuSans-49"/>
       <use x="63.623047" xlink:href="#DejaVuSans-46"/>
       <use x="95.410156" xlink:href="#DejaVuSans-48"/>
      </g>
     </g>
    </g>
    <g id="xtick_8">
     <g id="line2d_8">
      <g>
       <use style="stroke:#000000;stroke-width:0.8;" x="503.304545" xlink:href="#ma3aca02b17" y="448.56"/>
      </g>
     </g>
     <g id="text_8">
      <!-- 1.5 -->
      <g transform="translate(488.991733 469.237188)scale(0.18 -0.18)">
       <use xlink:href="#DejaVuSans-49"/>
       <use x="63.623047" xlink:href="#DejaVuSans-46"/>
       <use x="95.410156" xlink:href="#DejaVuSans-53"/>
      </g>
     </g>
    </g>
    <g id="xtick_9">
     <g id="line2d_9">
      <g>
       <use style="stroke:#000000;stroke-width:0.8;" x="560.372727" xlink:href="#ma3aca02b17" y="448.56"/>
      </g>
     </g>
     <g id="text_9">
      <!-- 2.0 -->
      <g transform="translate(546.059915 469.237188)scale(0.18 -0.18)">
       <use xlink:href="#DejaVuSans-50"/>
       <use x="63.623047" xlink:href="#DejaVuSans-46"/>
       <use x="95.410156" xlink:href="#DejaVuSans-48"/>
      </g>
     </g>
    </g>
   </g>
   <g id="matplotlib.axis_2">
    <g id="ytick_1">
     <g id="line2d_10">
      <defs>
       <path d="M 0 0 
L -3.5 0 
" id="me7b6af9023" style="stroke:#000000;stroke-width:0.8;"/>
      </defs>
      <g>
       <use style="stroke:#000000;stroke-width:0.8;" x="81" xlink:href="#me7b6af9023" y="403.238398"/>
      </g>
     </g>
     <g id="text_10">
      <!-- −0.15 -->
      <g transform="translate(18.838438 410.076992)scale(0.18 -0.18)">
       <use xlink:href="#DejaVuSans-8722"/>
       <use x="83.789062" xlink:href="#DejaVuSans-48"/>
       <use x="147.412109" xlink:href="#DejaVuSans-46"/>
       <use x="179.199219" xlink:href="#DejaVuSans-49"/>
       <use x="242.822266" xlink:href="#DejaVuSans-53"/>
      </g>
     </g>
    </g>
    <g id="ytick_2">
     <g id="line2d_11">
      <g>
       <use style="stroke:#000000;stroke-width:0.8;" x="81" xlink:href="#me7b6af9023" y="354.133891"/>
      </g>
     </g>
     <g id="text_11">
      <!-- −0.10 -->
      <g transform="translate(18.838438 360.972485)scale(0.18 -0.18)">
       <use xlink:href="#DejaVuSans-8722"/>
       <use x="83.789062" xlink:href="#DejaVuSans-48"/>
       <use x="147.412109" xlink:href="#DejaVuSans-46"/>
       <use x="179.199219" xlink:href="#DejaVuSans-49"/>
       <use x="242.822266" xlink:href="#DejaVuSans-48"/>
      </g>
     </g>
    </g>
    <g id="ytick_3">
     <g id="line2d_12">
      <g>
       <use style="stroke:#000000;stroke-width:0.8;" x="81" xlink:href="#me7b6af9023" y="305.029384"/>
      </g>
     </g>
     <g id="text_12">
      <!-- −0.05 -->
      <g transform="translate(18.838438 311.867977)scale(0.18 -0.18)">
       <use xlink:href="#DejaVuSans-8722"/>
       <use x="83.789062" xlink:href="#DejaVuSans-48"/>
       <use x="147.412109" xlink:href="#DejaVuSans-46"/>
       <use x="179.199219" xlink:href="#DejaVuSans-48"/>
       <use x="242.822266" xlink:href="#DejaVuSans-53"/>
      </g>
     </g>
    </g>
    <g id="ytick_4">
     <g id="line2d_13">
      <g>
       <use style="stroke:#000000;stroke-width:0.8;" x="81" xlink:href="#me7b6af9023" y="255.924877"/>
      </g>
     </g>
     <g id="text_13">
      <!-- 0.00 -->
      <g transform="translate(33.921875 262.76347)scale(0.18 -0.18)">
       <use xlink:href="#DejaVuSans-48"/>
       <use x="63.623047" xlink:href="#DejaVuSans-46"/>
       <use x="95.410156" xlink:href="#DejaVuSans-48"/>
       <use x="159.033203" xlink:href="#DejaVuSans-48"/>
      </g>
     </g>
    </g>
    <g id="ytick_5">
     <g id="line2d_14">
      <g>
       <use style="stroke:#000000;stroke-width:0.8;" x="81" xlink:href="#me7b6af9023" y="206.820369"/>
      </g>
     </g>
     <g id="text_14">
      <!-- 0.05 -->
      <g transform="translate(33.921875 213.658963)scale(0.18 -0.18)">
       <use xlink:href="#DejaVuSans-48"/>
       <use x="63.623047" xlink:href="#DejaVuSans-46"/>
       <use x="95.410156" xlink:href="#DejaVuSans-48"/>
       <use x="159.033203" xlink:href="#DejaVuSans-53"/>
      </g>
     </g>
    </g>
    <g id="ytick_6">
     <g id="line2d_15">
      <g>
       <use style="stroke:#000000;stroke-width:0.8;" x="81" xlink:href="#me7b6af9023" y="157.715862"/>
      </g>
     </g>
     <g id="text_15">
      <!-- 0.10 -->
      <g transform="translate(33.921875 164.554456)scale(0.18 -0.18)">
       <use xlink:href="#DejaVuSans-48"/>
       <use x="63.623047" xlink:href="#DejaVuSans-46"/>
       <use x="95.410156" xlink:href="#DejaVuSans-49"/>
       <use x="159.033203" xlink:href="#DejaVuSans-48"/>
      </g>
     </g>
    </g>
    <g id="ytick_7">
     <g id="line2d_16">
      <g>
       <use style="stroke:#000000;stroke-width:0.8;" x="81" xlink:href="#me7b6af9023" y="108.611355"/>
      </g>
     </g>
     <g id="text_16">
      <!-- 0.15 -->
      <g transform="translate(33.921875 115.449949)scale(0.18 -0.18)">
       <use xlink:href="#DejaVuSans-48"/>
       <use x="63.623047" xlink:href="#DejaVuSans-46"/>
       <use x="95.410156" xlink:href="#DejaVuSans-49"/>
       <use x="159.033203" xlink:href="#DejaVuSans-53"/>
      </g>
     </g>
    </g>
   </g>
   <g id="line2d_17">
    <path clip-path="url(#pc6ba559c43)" d="M 103.827273 87.451975 
L 104.284275 87.361609 
L 104.741277 88.404535 
L 105.198279 90.545458 
L 105.655281 93.736888 
L 106.569286 103.021726 
L 107.48329 115.656879 
L 108.854297 139.249736 
L 112.967316 216.670785 
L 113.881321 230.20797 
L 114.795325 241.177964 
L 115.70933 249.310565 
L 116.623334 254.519528 
L 117.080336 256.050988 
L 117.537338 256.901353 
L 117.99434 257.108688 
L 118.451356 256.721388 
L 118.908358 255.795167 
L 119.365361 254.393994 
L 120.279365 250.449262 
L 121.650372 242.845213 
L 123.021378 235.143374 
L 123.935382 230.960044 
L 124.849387 228.120737 
L 125.306389 227.32285 
L 125.763391 226.983265 
L 126.220393 227.122316 
L 126.677396 227.749465 
L 127.134398 228.863017 
L 127.5914 230.450983 
L 128.505404 234.946038 
L 129.419409 240.931087 
L 130.790415 251.699454 
L 132.618424 266.346372 
L 133.532428 272.389313 
L 134.446433 276.804975 
L 134.903435 278.252648 
L 135.360437 279.13054 
L 135.817439 279.402561 
L 136.274441 279.044522 
L 136.731444 278.0434 
L 137.188446 276.397116 
L 137.645448 274.116934 
L 138.559452 267.756212 
L 139.473457 259.282636 
L 140.844477 243.729424 
L 143.58649 211.114503 
L 144.500494 202.700503 
L 145.414499 196.780522 
L 145.871501 194.955525 
L 146.328503 193.975789 
L 146.785505 193.895732 
L 147.242507 194.757329 
L 147.69951 196.591275 
L 148.156512 199.415429 
L 148.613514 203.234395 
L 149.527518 213.810354 
L 150.441523 228.09535 
L 151.355527 245.663855 
L 152.726534 276.801196 
L 157.296556 386.853831 
L 158.21056 403.073797 
L 159.124564 415.51247 
L 160.038569 423.668083 
L 160.495571 426.038296 
L 160.952573 427.243429 
L 161.409575 427.280937 
L 161.866577 426.162629 
L 162.32358 423.91451 
L 162.780582 420.575991 
L 163.694586 410.85148 
L 164.60859 397.554375 
L 165.979611 372.541202 
L 170.549632 281.647681 
L 171.463637 268.333044 
L 172.377641 257.985965 
L 173.291646 250.812741 
L 173.748648 248.423123 
L 174.20565 246.809494 
L 174.662652 245.940108 
L 175.119654 245.772408 
L 175.576657 246.253421 
L 176.033659 247.321354 
L 176.490661 248.906582 
L 177.404665 253.320672 
L 178.775672 261.802072 
L 180.603681 273.069624 
L 181.517685 277.346746 
L 181.974687 278.941766 
L 182.431689 280.119566 
L 182.888691 280.851251 
L 183.345694 281.118012 
L 183.802696 280.911525 
L 184.259698 280.233757 
L 184.7167 279.096823 
L 185.173702 277.522833 
L 186.087707 273.195962 
L 187.001711 267.59983 
L 191.114744 240.097515 
L 192.028749 236.638248 
L 192.485751 235.609705 
L 192.942753 235.097447 
L 193.399755 235.126779 
L 193.856758 235.714232 
L 194.31376 236.866128 
L 194.770762 238.578725 
L 195.684766 243.619508 
L 196.598771 250.601294 
L 197.969777 263.81888 
L 201.168792 296.698603 
L 202.082797 303.357582 
L 202.539799 305.780654 
L 202.996801 307.494522 
L 203.453803 308.429935 
L 203.910806 308.527231 
L 204.367808 307.73654 
L 204.82481 306.019482 
L 205.281812 303.349903 
L 205.738814 299.714549 
L 206.652819 289.560797 
L 207.566823 275.723555 
L 208.480827 258.58528 
L 209.851848 228.017634 
L 213.964867 129.016575 
L 214.878872 111.761584 
L 215.792876 98.102953 
L 216.70688 88.629259 
L 217.163883 85.588607 
L 217.620885 83.717789 
L 218.077887 83.02787 
L 218.534889 83.51487 
L 218.991891 85.160305 
L 219.448893 87.931365 
L 219.905896 91.781557 
L 220.8199 102.470921 
L 221.733904 116.619858 
L 223.104911 142.643668 
L 227.217931 227.401659 
L 228.131942 242.328215 
L 229.045946 254.524742 
L 229.959951 263.693263 
L 230.873955 269.723071 
L 231.330957 271.577154 
L 231.787959 272.687878 
L 232.244961 273.091219 
L 232.701964 272.832697 
L 233.158966 271.965882 
L 233.615968 270.552371 
L 234.529972 266.361621 
L 235.443977 260.858234 
L 238.18599 242.856505 
L 239.100001 238.329935 
L 240.014005 235.314182 
L 240.471008 234.463901 
L 240.92801 234.081441 
L 241.385012 234.176228 
L 241.842014 234.747389 
L 242.299016 235.783767 
L 242.756018 237.26435 
L 243.670023 241.425706 
L 244.584027 246.881486 
L 248.240045 271.340324 
L 249.154049 275.280643 
L 249.611051 276.578069 
L 250.068053 277.368145 
L 250.525056 277.618159 
L 250.982058 277.305918 
L 251.43906 276.419957 
L 251.896062 274.960271 
L 252.353064 272.938424 
L 253.267069 267.313353 
L 254.18108 259.865757 
L 255.552086 246.380543 
L 257.837097 223.397866 
L 258.751102 216.249245 
L 259.665106 211.376431 
L 260.122108 209.992324 
L 260.57911 209.399208 
L 261.036113 209.651667 
L 261.493115 210.79331 
L 261.950117 212.855412 
L 262.407119 215.856677 
L 263.321124 224.686147 
L 264.235128 237.167071 
L 265.149139 252.975611 
L 266.520146 281.74499 
L 268.805157 336.791527 
L 270.633165 378.981903 
L 272.004172 404.70631 
L 272.918176 417.563231 
L 273.832181 426.301479 
L 274.289183 429.00045 
L 274.746185 430.544689 
L 275.203191 430.92 
L 275.660193 430.126017 
L 276.117195 428.176116 
L 276.574197 425.097238 
L 277.031199 420.929701 
L 277.945204 409.552702 
L 278.859211 394.608567 
L 280.230218 367.1264 
L 284.800243 268.236451 
L 285.714251 253.565139 
L 286.628252 242.058145 
L 287.542256 233.982462 
L 287.999259 231.256624 
L 288.456261 229.39228 
L 288.913263 228.363487 
L 289.370269 228.132128 
L 289.827271 228.648844 
L 290.284273 229.853915 
L 290.741275 231.67869 
L 291.655279 236.874665 
L 293.026286 247.230608 
L 295.311297 265.303038 
L 296.225301 270.911038 
L 297.139309 274.854944 
L 297.596311 276.108023 
L 298.053313 276.852934 
L 298.510316 277.081898 
L 298.967318 276.798161 
L 299.42432 276.015889 
L 299.881322 274.759499 
L 300.79533 270.969723 
L 301.709334 265.802356 
L 303.537343 253.330361 
L 304.908351 244.32565 
L 305.822356 239.521312 
L 306.736362 236.216514 
L 307.193364 235.237676 
L 307.650366 234.750583 
L 308.107368 234.775659 
L 308.56437 235.323517 
L 309.021373 236.394618 
L 309.478375 237.979217 
L 310.392381 242.598947 
L 311.306385 248.904829 
L 312.677392 260.56493 
L 314.962404 280.87386 
L 315.876409 287.30295 
L 316.790413 291.734043 
L 317.247415 293.007763 
L 317.704419 293.563727 
L 318.161421 293.344666 
L 318.618424 292.30283 
L 319.075426 290.400819 
L 319.53243 287.61256 
L 320.446435 279.333019 
L 321.360439 267.50256 
L 322.274445 252.365991 
L 323.645451 224.492843 
L 325.930464 170.32443 
L 327.758473 128.354417 
L 329.129481 102.77707 
L 330.043486 90.136269 
L 330.95749 81.778337 
L 331.414493 79.344582 
L 331.871496 78.120015 
L 332.328498 78.12 
L 332.7855 79.344568 
L 333.242503 81.778293 
L 333.699505 85.390605 
L 334.613517 95.95587 
L 335.527522 110.515489 
L 336.898529 138.238493 
L 339.183542 192.498626 
L 341.011551 234.370853 
L 342.382559 260.324198 
L 343.296563 273.851204 
L 344.210568 283.923859 
L 345.124573 290.40083 
L 345.581576 292.30283 
L 346.038579 293.344666 
L 346.495581 293.563727 
L 346.952583 293.007778 
L 347.409585 291.734054 
L 347.866589 289.808189 
L 348.780593 284.29705 
L 349.694598 277.119922 
L 353.350617 245.564391 
L 354.264623 240.057329 
L 355.178627 236.394618 
L 355.63563 235.323517 
L 356.092632 234.775659 
L 356.549634 234.750583 
L 357.006636 235.237676 
L 357.463638 236.216514 
L 357.920642 237.657279 
L 358.834647 241.762052 
L 359.748651 247.152184 
L 363.40467 270.969723 
L 364.318674 274.759481 
L 364.775677 276.015878 
L 365.232679 276.798176 
L 365.689681 277.081882 
L 366.146683 276.852936 
L 366.603689 276.108023 
L 367.060691 274.854944 
L 367.517693 273.112634 
L 368.431697 268.290927 
L 369.345702 262.00771 
L 373.001723 234.046546 
L 373.915731 229.853948 
L 374.372729 228.648844 
L 374.829731 228.132128 
L 375.286734 228.363461 
L 375.743736 229.392284 
L 376.200738 231.25658 
L 376.65774 233.982462 
L 377.571748 242.058145 
L 378.485752 253.565204 
L 379.399757 268.236451 
L 380.770767 295.098926 
L 383.055774 346.696281 
L 384.883786 386.020218 
L 385.797791 402.484519 
L 386.711795 415.726467 
L 387.625799 425.097238 
L 388.082802 428.176101 
L 388.539807 430.126017 
L 388.996809 430.92 
L 389.453815 430.544689 
L 389.910817 429.00045 
L 390.367819 426.301479 
L 390.824822 422.475433 
L 391.738826 411.618346 
L 392.65283 396.903662 
L 394.023837 369.061835 
L 395.851846 325.590542 
L 398.136856 271.592633 
L 399.507863 244.683559 
L 400.421867 230.48575 
L 401.335872 219.80291 
L 402.249876 212.855437 
L 402.706878 210.793375 
L 403.163881 209.651715 
L 403.62089 209.399208 
L 404.077892 209.992324 
L 404.534894 211.376431 
L 404.991896 213.486713 
L 405.9059 219.582368 
L 406.819905 227.603032 
L 410.932924 267.313285 
L 411.846929 272.938453 
L 412.303931 274.960214 
L 412.760933 276.41988 
L 413.217935 277.305925 
L 413.674938 277.618175 
L 414.13194 277.368181 
L 414.588949 276.578069 
L 415.045951 275.280643 
L 415.959955 271.340324 
L 416.87396 265.979623 
L 418.701968 253.164878 
L 420.072975 244.018661 
L 420.986979 239.158208 
L 421.900984 235.783767 
L 422.357986 234.747389 
L 422.814988 234.176228 
L 423.27199 234.081441 
L 423.728992 234.463901 
L 424.185995 235.314182 
L 424.642997 236.612678 
L 425.557001 240.427108 
L 426.471006 245.562556 
L 430.12703 268.65989 
L 430.584032 270.552371 
L 431.041034 271.965882 
L 431.498036 272.832697 
L 431.955039 273.091219 
L 432.412041 272.687878 
L 432.869043 271.577154 
L 433.326045 269.723071 
L 433.783047 267.100075 
L 434.697052 259.498803 
L 435.611056 248.790737 
L 436.52506 235.180469 
L 437.896067 210.222477 
L 440.181085 161.917159 
L 442.009093 124.759564 
L 442.923098 109.157413 
L 443.837102 96.651744 
L 444.751107 87.931365 
L 445.208109 85.160305 
L 445.665111 83.51487 
L 446.122113 83.02787 
L 446.579115 83.717789 
L 447.036117 85.588607 
L 447.49312 88.629259 
L 447.950122 92.814152 
L 448.864126 104.441222 
L 449.778131 119.983885 
L 451.149137 149.099846 
L 453.434148 205.560013 
L 455.262157 248.953821 
L 456.633163 275.723271 
L 457.547168 289.560643 
L 458.461186 299.714549 
L 458.918188 303.349903 
L 459.37519 306.019482 
L 459.832192 307.73654 
L 460.289194 308.527231 
L 460.746197 308.429935 
L 461.203199 307.494522 
L 461.660201 305.780654 
L 462.117203 303.357582 
L 463.031208 296.698603 
L 463.945212 288.202907 
L 468.058232 246.888704 
L 468.972236 240.837966 
L 469.88624 236.866128 
L 470.343242 235.714232 
L 470.800245 235.126779 
L 471.257247 235.097447 
L 471.714249 235.609705 
L 472.171251 236.638248 
L 472.628253 238.148354 
L 473.542258 242.435604 
L 474.456262 248.049238 
L 478.11228 273.19611 
L 479.026284 277.522825 
L 479.483286 279.096816 
L 479.940288 280.233658 
L 480.397304 280.911525 
L 480.854306 281.118012 
L 481.311309 280.851251 
L 481.768311 280.119566 
L 482.225313 278.941766 
L 483.139317 275.373291 
L 484.053322 270.492764 
L 487.252337 250.933212 
L 488.166341 247.321354 
L 488.623343 246.253421 
L 489.080346 245.772408 
L 489.537348 245.940108 
L 489.99435 246.809494 
L 490.451352 248.423123 
L 490.908354 250.812741 
L 491.365357 253.998119 
L 492.279361 262.770743 
L 493.193365 274.640274 
L 494.10737 289.297153 
L 495.478376 315.349876 
L 499.134394 389.788605 
L 500.048398 404.607207 
L 500.962402 416.199842 
L 501.876407 423.914422 
L 502.333423 426.162629 
L 502.790425 427.280937 
L 503.247427 427.243429 
L 503.704429 426.038296 
L 504.161431 423.668083 
L 504.618434 420.14924 
L 505.532438 409.801573 
L 506.446442 395.39775 
L 507.360447 377.53237 
L 508.731453 345.928559 
L 512.844473 245.663855 
L 513.758477 228.09535 
L 514.672482 213.810354 
L 515.586486 203.234395 
L 516.043488 199.415429 
L 516.50049 196.591275 
L 516.957493 194.757329 
L 517.414495 193.895732 
L 517.871497 193.975789 
L 518.328499 194.955525 
L 518.785501 196.780522 
L 519.242503 199.386782 
L 520.156508 206.639324 
L 521.070512 216.031245 
L 522.898521 238.112003 
L 524.72653 259.282695 
L 525.640534 267.756212 
L 526.554538 274.11678 
L 527.011541 276.397204 
L 527.468543 278.043199 
L 527.925559 279.044522 
L 528.382561 279.402561 
L 528.839563 279.13054 
L 529.296565 278.252648 
L 529.753567 276.804975 
L 530.667572 272.389313 
L 531.581576 266.346372 
L 533.409585 251.699454 
L 534.780591 240.931087 
L 535.694596 234.946038 
L 536.6086 230.450983 
L 537.065602 228.863017 
L 537.522604 227.749465 
L 537.979607 227.122316 
L 538.436609 226.983265 
L 538.893611 227.32285 
L 539.350613 228.120737 
L 539.807615 229.34672 
L 540.72162 232.911361 
L 541.635624 237.590865 
L 544.377637 252.586784 
L 545.291642 255.795167 
L 545.748644 256.721388 
L 546.205646 257.108891 
L 546.662648 256.901263 
L 547.11965 256.051138 
L 547.576652 254.519729 
L 548.033655 252.279023 
L 548.490657 249.310755 
L 549.404661 241.178191 
L 550.318679 230.20797 
L 551.232684 216.670785 
L 552.60369 192.569939 
L 556.71671 115.656879 
L 557.630714 103.021726 
L 558.544719 93.736888 
L 559.001721 90.545458 
L 559.458723 88.404535 
L 559.915725 87.361609 
L 560.372727 87.451975 
L 560.372727 87.451975 
" style="fill:none;stroke:#1f77b4;stroke-linecap:square;stroke-width:1.5;"/>
   </g>
   <g id="patch_3">
    <path d="M 81 448.56 
L 81 60.48 
" style="fill:none;stroke:#000000;stroke-linecap:square;stroke-linejoin:miter;stroke-width:0.8;"/>
   </g>
   <g id="patch_4">
    <path d="M 583.2 448.56 
L 583.2 60.48 
" style="fill:none;stroke:#000000;stroke-linecap:square;stroke-linejoin:miter;stroke-width:0.8;"/>
   </g>
   <g id="patch_5">
    <path d="M 81 448.56 
L 583.2 448.56 
" style="fill:none;stroke:#000000;stroke-linecap:square;stroke-linejoin:miter;stroke-width:0.8;"/>
   </g>
   <g id="patch_6">
    <path d="M 81 60.48 
L 583.2 60.48 
" style="fill:none;stroke:#000000;stroke-linecap:square;stroke-linejoin:miter;stroke-width:0.8;"/>
   </g>
   <g id="text_17">
    <!-- Learned kernel -->
    <g transform="translate(251.729438 54.48)scale(0.216 -0.216)">
     <defs>
      <path d="M 9.8125 72.90625 
L 19.671875 72.90625 
L 19.671875 8.296875 
L 55.171875 8.296875 
L 55.171875 0 
L 9.8125 0 
z
" id="DejaVuSans-76"/>
      <path d="M 56.203125 29.59375 
L 56.203125 25.203125 
L 14.890625 25.203125 
Q 15.484375 15.921875 20.484375 11.0625 
Q 25.484375 6.203125 34.421875 6.203125 
Q 39.59375 6.203125 44.453125 7.46875 
Q 49.3125 8.734375 54.109375 11.28125 
L 54.109375 2.78125 
Q 49.265625 0.734375 44.1875 -0.34375 
Q 39.109375 -1.421875 33.890625 -1.421875 
Q 20.796875 -1.421875 13.15625 6.1875 
Q 5.515625 13.8125 5.515625 26.8125 
Q 5.515625 40.234375 12.765625 48.109375 
Q 20.015625 56 32.328125 56 
Q 43.359375 56 49.78125 48.890625 
Q 56.203125 41.796875 56.203125 29.59375 
z
M 47.21875 32.234375 
Q 47.125 39.59375 43.09375 43.984375 
Q 39.0625 48.390625 32.421875 48.390625 
Q 24.90625 48.390625 20.390625 44.140625 
Q 15.875 39.890625 15.1875 32.171875 
z
" id="DejaVuSans-101"/>
      <path d="M 34.28125 27.484375 
Q 23.390625 27.484375 19.1875 25 
Q 14.984375 22.515625 14.984375 16.5 
Q 14.984375 11.71875 18.140625 8.90625 
Q 21.296875 6.109375 26.703125 6.109375 
Q 34.1875 6.109375 38.703125 11.40625 
Q 43.21875 16.703125 43.21875 25.484375 
L 43.21875 27.484375 
z
M 52.203125 31.203125 
L 52.203125 0 
L 43.21875 0 
L 43.21875 8.296875 
Q 40.140625 3.328125 35.546875 0.953125 
Q 30.953125 -1.421875 24.3125 -1.421875 
Q 15.921875 -1.421875 10.953125 3.296875 
Q 6 8.015625 6 15.921875 
Q 6 25.140625 12.171875 29.828125 
Q 18.359375 34.515625 30.609375 34.515625 
L 43.21875 34.515625 
L 43.21875 35.40625 
Q 43.21875 41.609375 39.140625 45 
Q 35.0625 48.390625 27.6875 48.390625 
Q 23 48.390625 18.546875 47.265625 
Q 14.109375 46.140625 10.015625 43.890625 
L 10.015625 52.203125 
Q 14.9375 54.109375 19.578125 55.046875 
Q 24.21875 56 28.609375 56 
Q 40.484375 56 46.34375 49.84375 
Q 52.203125 43.703125 52.203125 31.203125 
z
" id="DejaVuSans-97"/>
      <path d="M 41.109375 46.296875 
Q 39.59375 47.171875 37.8125 47.578125 
Q 36.03125 48 33.890625 48 
Q 26.265625 48 22.1875 43.046875 
Q 18.109375 38.09375 18.109375 28.8125 
L 18.109375 0 
L 9.078125 0 
L 9.078125 54.6875 
L 18.109375 54.6875 
L 18.109375 46.1875 
Q 20.953125 51.171875 25.484375 53.578125 
Q 30.03125 56 36.53125 56 
Q 37.453125 56 38.578125 55.875 
Q 39.703125 55.765625 41.0625 55.515625 
z
" id="DejaVuSans-114"/>
      <path d="M 54.890625 33.015625 
L 54.890625 0 
L 45.90625 0 
L 45.90625 32.71875 
Q 45.90625 40.484375 42.875 44.328125 
Q 39.84375 48.1875 33.796875 48.1875 
Q 26.515625 48.1875 22.3125 43.546875 
Q 18.109375 38.921875 18.109375 30.90625 
L 18.109375 0 
L 9.078125 0 
L 9.078125 54.6875 
L 18.109375 54.6875 
L 18.109375 46.1875 
Q 21.34375 51.125 25.703125 53.5625 
Q 30.078125 56 35.796875 56 
Q 45.21875 56 50.046875 50.171875 
Q 54.890625 44.34375 54.890625 33.015625 
z
" id="DejaVuSans-110"/>
      <path d="M 45.40625 46.390625 
L 45.40625 75.984375 
L 54.390625 75.984375 
L 54.390625 0 
L 45.40625 0 
L 45.40625 8.203125 
Q 42.578125 3.328125 38.25 0.953125 
Q 33.9375 -1.421875 27.875 -1.421875 
Q 17.96875 -1.421875 11.734375 6.484375 
Q 5.515625 14.40625 5.515625 27.296875 
Q 5.515625 40.1875 11.734375 48.09375 
Q 17.96875 56 27.875 56 
Q 33.9375 56 38.25 53.625 
Q 42.578125 51.265625 45.40625 46.390625 
z
M 14.796875 27.296875 
Q 14.796875 17.390625 18.875 11.75 
Q 22.953125 6.109375 30.078125 6.109375 
Q 37.203125 6.109375 41.296875 11.75 
Q 45.40625 17.390625 45.40625 27.296875 
Q 45.40625 37.203125 41.296875 42.84375 
Q 37.203125 48.484375 30.078125 48.484375 
Q 22.953125 48.484375 18.875 42.84375 
Q 14.796875 37.203125 14.796875 27.296875 
z
" id="DejaVuSans-100"/>
      <path id="DejaVuSans-32"/>
      <path d="M 9.078125 75.984375 
L 18.109375 75.984375 
L 18.109375 31.109375 
L 44.921875 54.6875 
L 56.390625 54.6875 
L 27.390625 29.109375 
L 57.625 0 
L 45.90625 0 
L 18.109375 26.703125 
L 18.109375 0 
L 9.078125 0 
z
" id="DejaVuSans-107"/>
      <path d="M 9.421875 75.984375 
L 18.40625 75.984375 
L 18.40625 0 
L 9.421875 0 
z
" id="DejaVuSans-108"/>
     </defs>
     <use xlink:href="#DejaVuSans-76"/>
     <use x="53.962891" xlink:href="#DejaVuSans-101"/>
     <use x="115.486328" xlink:href="#DejaVuSans-97"/>
     <use x="176.765625" xlink:href="#DejaVuSans-114"/>
     <use x="216.128906" xlink:href="#DejaVuSans-110"/>
     <use x="279.507812" xlink:href="#DejaVuSans-101"/>
     <use x="341.03125" xlink:href="#DejaVuSans-100"/>
     <use x="404.507812" xlink:href="#DejaVuSans-32"/>
     <use x="436.294922" xlink:href="#DejaVuSans-107"/>
     <use x="490.580078" xlink:href="#DejaVuSans-101"/>
     <use x="552.103516" xlink:href="#DejaVuSans-114"/>
     <use x="591.466797" xlink:href="#DejaVuSans-110"/>
     <use x="654.845703" xlink:href="#DejaVuSans-101"/>
     <use x="716.369141" xlink:href="#DejaVuSans-108"/>
    </g>
   </g>
  </g>
 </g>
 <defs>
  <clipPath id="pc6ba559c43">
   <rect height="388.08" width="502.2" x="81" y="60.48"/>
  </clipPath>
 </defs>
</svg>
